# xmcd
#
# Track frame offsets: 
#        150
#        16852
#        34879
#        50974
#        68692
#        82552
#        97630
#        116469
#        135119
#        154274
#        172869
#        192417
#        212874
#        231557
#        251284
#        270349
#        289360
#        308354
#
# Disc length: 4343 seconds
#
# Revision: 3
# Processed by: cddbd v1.5.2PL0 Copyright (c) Steve Scherf et al.
# Submitted via: ExactAudioCopy v0.99pb5
#
DISCID=e210f512
DTITLE=Jelly Roll Morton - The Complete Library of Congress Recordings
DTITLE=Disc 6
DYEAR=2005
DGENRE=Ragtime, Dixieland and Jazz blues
TTITLE0=Bert Williams
TTITLE1=Freakish
TTITLE2=Pep
TTITLE3=The Georgia Skin Game, Pt. 1
TTITLE4=The Georgia Skin Game, Pt. 2
TTITLE5=The Georgia Skin Game, Pt. 3
TTITLE6=Ungai Hai, The Sign of the Indians
TTITLE7=New Orleans Blues
TTITLE8=The Spanish Tinge
TTITLE9=Improving Spanish Tempos
TTITLE10=Creepy Feeling
TTITLE11=The Crave
TTITLE12=Mamanita
TTITLE13=If You Don't Shake, You Don't Get No Cake
TTITLE14=Spanish Swat
TTITLE15=Ain't Misbehavin'
TTITLE16=I Hate a Man Like You/Rolling Stuff
TTITLE17=Michigan Water Blues
EXTD=YEAR: 2005
EXTT0=
EXTT1=
EXTT2=
EXTT3=
EXTT4=
EXTT5=
EXTT6=
EXTT7=
EXTT8=
EXTT9=
EXTT10=
EXTT11=
EXTT12=
EXTT13=
EXTT14=
EXTT15=
EXTT16=
EXTT17=
PLAYORDER=
